# xmcd CD database file
#
# Track frame offsets:
#	150
#	14235
#	29295
#	43642
#	58982
#	85415
#	101102
#	114337
#	129065
#	141942
#	155232
#	166557
#	179217
#	201552
#	215250
#	228115
#
# Disc length: 3244 seconds
#
# Revision: 0
# Processed by: cddbd v1.5.1PL0 Copyright (c) Steve Scherf et al.
# Submitted via: CDex 1.51
#
DISCID=e70caa10
DTITLE=Various Artist - The best of JAZZ VOCAL
DYEAR=1987
DGENRE=Jazz
TTITLE0=枯葉
TTITLE1=スターダスト
TTITLE2=時のすぎゆくまま
TTITLE3=マック・ザ・ナイフ
TTITLE4=ラウンド・ミッドナイト
TTITLE5=ニューヨークの秋
TTITLE6=セプテンバー・ソング
TTITLE7=サマータイム
TTITLE8=スイングがなけりゃ意味ないね
TTITLE9=我が心のジョージア
TTITLE10=ブロードウェイの子守唄
TTITLE11=あなたはしっかり私のもの
TTITLE12=イエスタデイズ
TTITLE13=夜も昼も
TTITLE14=セントルイス・ブルース
TTITLE15=帰ってくれたらうれしいわ
EXTD=YEAR: 1987
EXTT0=
EXTT1=
EXTT2=
EXTT3=
EXTT4=
EXTT5=
EXTT6=
EXTT7=
EXTT8=
EXTT9=
EXTT10=
EXTT11=
EXTT12=
EXTT13=
EXTT14=
EXTT15=
PLAYORDER=
